<!-- icon666.com - MILLIONS vector ICONS FREE --><svg version="1.1" id="Layer_1" xmlns="http://www.w3.org/2000/svg" xmlns:xlink="http://www.w3.org/1999/xlink" x="0px" y="0px" viewBox="0 0 512 512" style="enable-background:new 0 0 512 512;" xml:space="preserve"><circle style="fill:#B02E64;" cx="256" cy="256" r="256"></circle><path style="fill:#752A58;" d="M512,256c0-12.748-0.946-25.275-2.745-37.524L404.66,113.881 C367.215,74.724,314.457,50.333,256,50.333c-113.587,0-205.667,92.08-205.667,205.667c0,58.457,24.391,111.215,63.548,148.66 l104.595,104.595C230.725,511.054,243.251,512,256,512C397.385,512,512,397.385,512,256z"></path><circle style="fill:#FFDBA9;" cx="256" cy="256" r="205.67"></circle><path style="fill:#FFC473;" d="M461.67,256c0,113.59-92.08,205.67-205.67,205.67V50.33C369.59,50.33,461.67,142.41,461.67,256z"></path><circle style="fill:#FFFFFF;" cx="256" cy="256" r="187.5"></circle><path style="fill:#FFED97;" d="M443.5,256c0,103.55-83.95,187.5-187.5,187.5v-375C359.55,68.5,443.5,152.45,443.5,256z"></path><path style="fill:#D9A600;" d="M419.833,278.75h-38c-6.6,0-12-5.4-12-12v-21.5c0-6.6,5.4-12,12-12h38c6.6,0,12,5.4,12,12v21.5 C431.833,273.35,426.433,278.75,419.833,278.75z"></path><circle style="fill:#FFDB2D;" cx="256" cy="256" r="141"></circle><path style="fill:#FDC000;" d="M397,256c0,77.87-63.13,141-141,141V115C333.87,115,397,178.13,397,256z"></path><circle style="fill:#C06200;" cx="256" cy="256" r="116.04"></circle><path style="fill:#9A4C00;" d="M372.04,256c0,64.09-51.95,116.04-116.04,116.04V139.96C320.09,139.96,372.04,191.91,372.04,256z"></path><path style="fill:#FFF5CB;" d="M306.506,201.284c-37.775,0-50.435,46.034-50.506,46.292c-0.071-0.258-12.731-46.292-50.506-46.292 c-37.88,0-63.134,83.651,50.504,133.107v0.002c0,0,0.001-0.001,0.002-0.001c0.001,0,0.002-0.001,0.002-0.001 C369.639,284.935,344.386,201.284,306.506,201.284z"></path><path style="fill:#FFE670;" d="M338.48,242.41c0,28.15-20.75,65.11-82.48,91.98v-86.81c0.07-0.26,12.73-46.3,50.51-46.3 C323.81,201.28,338.48,218.73,338.48,242.41z"></path><path style="fill:#FFC05D;" d="M257.041,340.792l-3.269-1.633c-32.948-14.359-56.965-32.506-71.385-53.941 c-11.982-17.809-16.565-37.296-12.906-54.87c4.207-20.21,19.016-34.325,36.013-34.325c27.824,0,43.26,22.319,50.455,37.188 c7.095-14.882,22.425-37.188,50.557-37.188c16.997,0,31.806,14.115,36.012,34.326c3.659,17.575-0.924,37.061-12.905,54.87 c-14.305,21.263-38.051,39.29-70.594,53.594L257.041,340.792z M205.494,206.545c-11.959,0-22.532,10.67-25.712,25.947 c-3.076,14.776,0.949,31.415,11.335,46.852c12.813,19.046,35.218,36.062,64.882,49.297c29.665-13.235,52.07-30.251,64.883-49.297 c10.385-15.437,14.411-32.076,11.334-46.852c-3.18-15.277-13.753-25.947-25.711-25.947c-33.361,0-45.316,42.001-45.433,42.425 l-5.114,18.567l-5.037-18.585C250.808,248.539,238.852,206.545,205.494,206.545z"></path><path style="fill:#FFAA20;" d="M342.52,230.35c-4.21-20.21-19.02-34.33-36.01-34.33c-28.08,0-43.4,22.21-50.51,37.09v34.28 l5.07-18.42c0.12-0.42,12.07-42.43,45.44-42.43c11.95,0,22.53,10.67,25.71,25.95c3.07,14.78-0.95,31.42-11.34,46.85 c-12.81,19.05-35.22,36.07-64.88,49.3v11.63l1.04,0.52l1.98-1.98c32.54-14.3,56.29-32.33,70.59-53.59 C341.59,267.41,346.18,247.92,342.52,230.35z"></path></svg>